# xmcd
#
# Track frame offsets: 
#        150
#        16225
#        35373
#        50180
#        67713
#        85253
#        101745
#        119280
#        134403
#        153348
#
# Disc length: 2316 seconds
#
# Revision: 0
# Processed by: cddbd v1.5.2PL0 Copyright (c) Steve Scherf et al.
# Submitted via: ExactAudioCopy v0.99pb4
#
DISCID=7d090a0a
DTITLE=Chuck Alvarez - The Life I Live
DYEAR=1993
DGENRE=Blues
TTITLE0=Hard Luck
TTITLE1=Working At The Mint
TTITLE2=The Balder I Go
TTITLE3=Sometimes I.m Down
TTITLE4=The Life I LIve
TTITLE5=Never Had Me
TTITLE6=Lonf Way From Heaven
TTITLE7=Light Rain
TTITLE8=My Life
TTITLE9=Goodbye
EXTD=
EXTT0=
EXTT1=
EXTT2=
EXTT3=
EXTT4=
EXTT5=
EXTT6=
EXTT7=
EXTT8=
EXTT9=
PLAYORDER=
